<svg width="2160" height="864" viewBox="0 0 2160 864" fill="none" xmlns="http://www.w3.org/2000/svg">
<g opacity="0.8">
<g opacity="0.8">
<g opacity="0.16">
<path d="M2052 162C2052 132.177 2076.18 108 2106 108C2135.82 108 2160 132.177 2160 162C2160 191.823 2135.82 216 2106 216C2076.18 216 2052 191.823 2052 162Z" fill="#5AA6DD" fill-opacity="0.6"/>
<path fill-rule="evenodd" clip-rule="evenodd" d="M2106 128.25C2087.36 128.25 2072.25 143.36 2072.25 162C2072.25 180.64 2087.36 195.75 2106 195.75C2124.64 195.75 2139.75 180.64 2139.75 162C2139.75 143.36 2124.64 128.25 2106 128.25ZM2106 148.5C2098.54 148.5 2092.5 154.544 2092.5 162C2092.5 169.456 2098.54 175.5 2106 175.5C2113.46 175.5 2119.5 169.456 2119.5 162C2119.5 154.544 2113.46 148.5 2106 148.5Z" fill="#5AA6DD"/>
</g>
<g opacity="0.16">
<path d="M2052 108V216C1992.35 216 1944 167.647 1944 108H2052Z" fill="#5AA6DD" fill-opacity="0.6"/>
<path fill-rule="evenodd" clip-rule="evenodd" d="M2052 148.349V182.231C2051.44 182.244 2050.88 182.25 2050.31 182.25C2009.31 182.25 1976.06 149.007 1976.06 108H2011.65C2011.55 109.112 2011.5 110.237 2011.5 111.375C2011.5 131.879 2028.12 148.5 2048.62 148.5C2049.76 148.5 2050.89 148.449 2052 148.349Z" fill="#5AA6DD"/>
</g>
<g opacity="0.16">
<path d="M1944 162C1944 132.177 1919.82 108 1890 108H1836V162C1836 191.823 1860.18 216 1890 216C1919.82 216 1944 191.823 1944 162Z" fill="#5AA6DD"/>
</g>
<g opacity="0.16">
<path d="Mnan nanL1782 162C1811.82 162 1836 137.823 1836 108Lnan nanL1836 108Lnan nanL1836 108C1806.18 108 1782 132.177 1782 162Lnan nanL1782 162Lnan nanZ" fill="#5AA6DD"/>
<path d="Mnan nanL1782 162C1811.82 162 1836 186.177 1836 216Lnan nanL1836 216Lnan nanL1836 216C1806.18 216 1782 191.823 1782 162Lnan nanL1782 162Lnan nanZ" fill="#5AA6DD"/>
<path d="Mnan nanL1782 162C1752.18 162 1728 137.823 1728 108Lnan nanL1728 108Lnan nanL1728 108C1757.82 108 1782 132.177 1782 162Lnan nanL1782 162Lnan nanZ" fill="#5AA6DD" fill-opacity="0.6"/>
<path d="Mnan nanL1728 216C1757.82 216 1782 191.823 1782 162Lnan nanL1782 162Lnan nanL1782 162C1752.18 162 1728 186.177 1728 216Lnan nanL1728 216Lnan nanZ" fill="#5AA6DD" fill-opacity="0.6"/>
</g>
<g opacity="0.16">
<path d="M1674 162C1644.18 162 1620 186.177 1620 216L1728 216C1728 186.177 1703.82 162 1674 162Z" fill="#5AA6DD"/>
<path d="M1674 162C1703.82 162 1728 137.823 1728 108L1620 108C1620 137.823 1644.18 162 1674 162Z" fill="#5AA6DD" fill-opacity="0.6"/>
</g>
<g opacity="0.16">
<path d="M1552.5 108L1552.5 216L1512 216L1512 108L1552.5 108Z" fill="#5AA6DD" fill-opacity="0.6"/>
<path d="M1620 108L1620 216L1579.5 216L1579.5 108L1620 108Z" fill="#5AA6DD"/>
</g>
<g opacity="0.16">
<path d="M1404 216V108C1463.65 108 1512 156.353 1512 216H1404Z" fill="#5AA6DD" fill-opacity="0.6"/>
<path fill-rule="evenodd" clip-rule="evenodd" d="M1404 175.651V141.769C1404.56 141.756 1405.12 141.75 1405.69 141.75C1446.69 141.75 1479.94 174.993 1479.94 216H1444.35C1444.45 214.888 1444.5 213.763 1444.5 212.625C1444.5 192.121 1427.88 175.5 1407.38 175.5C1406.24 175.5 1405.11 175.551 1404 175.651Z" fill="#5AA6DD"/>
</g>
<g opacity="0.16">
<path d="M1350 162C1320.18 162 1296 137.823 1296 108L1404 108C1404 137.823 1379.82 162 1350 162Z" fill="#5AA6DD"/>
<path d="M1350 162C1379.82 162 1404 186.177 1404 216L1296 216C1296 186.177 1320.18 162 1350 162Z" fill="#5AA6DD" fill-opacity="0.6"/>
</g>
<g opacity="0.16">
<path d="Mnan nanL1296 162C1266.18 162 1242 137.823 1242 108Lnan nanL1242 108Lnan nanL1242 108C1271.82 108 1296 132.177 1296 162Lnan nanL1296 162Lnan nanZ" fill="#5AA6DD"/>
<path d="Mnan nanL1296 162C1266.18 162 1242 186.177 1242 216Lnan nanL1242 216Lnan nanL1242 216C1271.82 216 1296 191.823 1296 162Lnan nanL1296 162Lnan nanZ" fill="#5AA6DD"/>
<path d="Mnan nanL1188 162C1217.82 162 1242 137.823 1242 108Lnan nanL1242 108Lnan nanL1242 108C1212.18 108 1188 132.177 1188 162Lnan nanL1188 162Lnan nanZ" fill="#5AA6DD" fill-opacity="0.6"/>
<path d="Mnan nanL1188 162C1217.82 162 1242 186.177 1242 216Lnan nanL1242 216Lnan nanL1242 216C1212.18 216 1188 191.823 1188 162Lnan nanL1188 162Lnan nanZ" fill="#5AA6DD" fill-opacity="0.6"/>
</g>
<g opacity="0.16">
<path d="M1188 162C1188 132.177 1163.82 108 1134 108Lnan nanL1134 108C1104.18 108 1080 132.177 1080 162V216H1188V162Z" fill="#5AA6DD" fill-opacity="0.6"/>
<path d="M1100.25 162C1100.25 180.64 1115.36 195.75 1134 195.75C1152.64 195.75 1167.75 180.64 1167.75 162C1167.75 143.36 1152.64 128.25 1134 128.25C1115.36 128.25 1100.25 143.36 1100.25 162Z" fill="#5AA6DD"/>
</g>
<g opacity="0.16">
<path d="Mnan nanL2106 54C2076.18 54 2052 78.1766 2052 108Lnan nanL2052 108Lnan nanL2052 108C2081.82 108 2106 83.8234 2106 54Lnan nanL2106 54Lnan nanZ" fill="#5AA6DD"/>
<path d="Mnan nanL2106 54C2076.18 54 2052 29.8234 2052 0Lnan nanL2052 0Lnan nanL2052 0C2081.82 -3.5564e-07 2106 24.1766 2106 54Lnan nanL2106 54Lnan nanZ" fill="#5AA6DD"/>
<path d="Mnan nanL2106 54C2135.82 54 2160 78.1766 2160 108Lnan nanL2160 108Lnan nanL2160 108C2130.18 108 2106 83.8234 2106 54Lnan nanL2106 54Lnan nanZ" fill="#5AA6DD" fill-opacity="0.6"/>
<path d="Mnan nanL2160 2.36041e-06C2130.18 1.05679e-06 2106 24.1766 2106 54Lnan nanL2106 54Lnan nanL2106 54C2135.82 54 2160 29.8234 2160 2.36041e-06Lnan nanL2160 2.36041e-06Lnan nanZ" fill="#5AA6DD" fill-opacity="0.6"/>
</g>
<g opacity="0.16">
<path d="M1984.5 0L1984.5 108L1944 108L1944 1.77031e-06L1984.5 0Z" fill="#5AA6DD" fill-opacity="0.6"/>
<path d="M2052 0L2052 108L2011.5 108L2011.5 1.77031e-06L2052 0Z" fill="#5AA6DD"/>
</g>
<g opacity="0.16">
<path d="M1836 54C1836 24.1766 1860.18 0 1890 0C1919.82 0 1944 24.1766 1944 54C1944 83.8234 1919.82 108 1890 108C1860.18 108 1836 83.8234 1836 54Z" fill="#5AA6DD"/>
<path d="M1856.25 54C1856.25 35.3604 1871.36 20.25 1890 20.25C1908.64 20.25 1923.75 35.3604 1923.75 54C1923.75 72.6396 1908.64 87.75 1890 87.75C1871.36 87.75 1856.25 72.6396 1856.25 54Z" fill="#5AA6DD" fill-opacity="0.6"/>
<path d="M1876.5 54C1876.5 46.5442 1882.54 40.5 1890 40.5C1897.46 40.5 1903.5 46.5442 1903.5 54C1903.5 61.4558 1897.46 67.5 1890 67.5C1882.54 67.5 1876.5 61.4558 1876.5 54Z" fill="#5AA6DD"/>
</g>
<g opacity="0.16">
<path d="M1728 54C1728 24.1766 1752.18 0 1782 0H1836V54C1836 83.8234 1811.82 108 1782 108C1752.18 108 1728 83.8234 1728 54Z" fill="#5AA6DD" fill-opacity="0.6"/>
</g>
<g opacity="0.16">
<path d="Mnan nanL1620 54C1649.82 54 1674 78.1766 1674 108Lnan nanL1674 108Lnan nanL1674 108C1644.18 108 1620 83.8234 1620 54Lnan nanL1620 54Lnan nanZ" fill="#5AA6DD"/>
<path d="Mnan nanL1620 54C1649.82 54 1674 29.8234 1674 0Lnan nanL1674 0Lnan nanL1674 0C1644.18 -3.5564e-07 1620 24.1766 1620 54Lnan nanL1620 54Lnan nanZ" fill="#5AA6DD"/>
<path d="Mnan nanL1728 54C1698.18 54 1674 78.1766 1674 108Lnan nanL1674 108Lnan nanL1674 108C1703.82 108 1728 83.8234 1728 54Lnan nanL1728 54Lnan nanZ" fill="#5AA6DD" fill-opacity="0.6"/>
<path d="Mnan nanL1728 54C1698.18 54 1674 29.8234 1674 0Lnan nanL1674 0Lnan nanL1674 0C1703.82 -1.30362e-06 1728 24.1766 1728 54Lnan nanL1728 54Lnan nanZ" fill="#5AA6DD" fill-opacity="0.6"/>
</g>
<g opacity="0.16">
<path d="M1566 54C1536.18 54 1512 29.8234 1512 -4.72083e-06L1620 0C1620 29.8234 1595.82 54 1566 54Z" fill="#5AA6DD"/>
<path d="M1566 54C1595.82 54 1620 78.1766 1620 108L1512 108C1512 78.1766 1536.18 54 1566 54Z" fill="#5AA6DD" fill-opacity="0.6"/>
</g>
<g opacity="0.16">
<path d="M1512 54C1512 83.8234 1487.82 108 1458 108H1404V54C1404 24.1766 1428.18 0 1458 0C1487.82 0 1512 24.1766 1512 54Z" fill="#5AA6DD"/>
</g>
<g opacity="0.16">
<path d="M1336.5 0L1336.5 108L1296 108L1296 1.77031e-06L1336.5 0Z" fill="#5AA6DD" fill-opacity="0.6"/>
<path d="M1404 0L1404 108L1363.5 108L1363.5 1.77031e-06L1404 0Z" fill="#5AA6DD"/>
</g>
<g opacity="0.16">
<path d="Mnan nanL1242 54C1271.82 54 1296 29.8234 1296 0Lnan nanL1296 0Lnan nanL1296 0C1266.18 1.30362e-06 1242 24.1766 1242 54Lnan nanL1242 54Lnan nanZ" fill="#5AA6DD"/>
<path d="Mnan nanL1242 54C1271.82 54 1296 78.1766 1296 108Lnan nanL1296 108Lnan nanL1296 108C1266.18 108 1242 83.8234 1242 54Lnan nanL1242 54Lnan nanZ" fill="#5AA6DD"/>
<path d="Mnan nanL1242 54C1212.18 54 1188 29.8234 1188 3.8147e-06Lnan nanL1188 3.8147e-06Lnan nanL1188 3.8147e-06C1217.82 2.51108e-06 1242 24.1766 1242 54Lnan nanL1242 54Lnan nanZ" fill="#5AA6DD" fill-opacity="0.6"/>
<path d="Mnan nanL1188 108C1217.82 108 1242 83.8234 1242 54Lnan nanL1242 54Lnan nanL1242 54C1212.18 54 1188 78.1766 1188 108Lnan nanL1188 108Lnan nanZ" fill="#5AA6DD" fill-opacity="0.6"/>
</g>
<g opacity="0.16">
<path d="M1080 54C1080 83.8234 1104.18 108 1134 108H1188V54C1188 24.1766 1163.82 0 1134 0C1104.18 0 1080 24.1766 1080 54Z" fill="#5AA6DD" fill-opacity="0.6"/>
</g>
</g>
<g opacity="0.8">
<g opacity="0.16">
<path d="M972 162C972 132.177 996.177 108 1026 108C1055.82 108 1080 132.177 1080 162C1080 191.823 1055.82 216 1026 216C996.177 216 972 191.823 972 162Z" fill="#5AA6DD" fill-opacity="0.6"/>
<path fill-rule="evenodd" clip-rule="evenodd" d="M1026 128.25C1007.36 128.25 992.25 143.36 992.25 162C992.25 180.64 1007.36 195.75 1026 195.75C1044.64 195.75 1059.75 180.64 1059.75 162C1059.75 143.36 1044.64 128.25 1026 128.25ZM1026 148.5C1018.54 148.5 1012.5 154.544 1012.5 162C1012.5 169.456 1018.54 175.5 1026 175.5C1033.46 175.5 1039.5 169.456 1039.5 162C1039.5 154.544 1033.46 148.5 1026 148.5Z" fill="#5AA6DD"/>
</g>
<g opacity="0.16">
<path d="M972 108V216C912.353 216 864 167.647 864 108H972Z" fill="#5AA6DD" fill-opacity="0.6"/>
<path fill-rule="evenodd" clip-rule="evenodd" d="M972 148.349V182.231C971.439 182.244 970.876 182.25 970.312 182.25C929.305 182.25 896.062 149.007 896.062 108H931.651C931.551 109.112 931.5 110.237 931.5 111.375C931.5 131.879 948.121 148.5 968.625 148.5C969.763 148.5 970.888 148.449 972 148.349Z" fill="#5AA6DD"/>
</g>
<g opacity="0.16">
<path d="M864 162C864 132.177 839.823 108 810 108H756V162C756 191.823 780.177 216 810 216C839.823 216 864 191.823 864 162Z" fill="#5AA6DD"/>
</g>
<g opacity="0.16">
<path d="Mnan nanL702 162C731.823 162 756 137.823 756 108Lnan nanL756 108Lnan nanL756 108C726.177 108 702 132.177 702 162Lnan nanL702 162Lnan nanZ" fill="#5AA6DD"/>
<path d="Mnan nanL702 162C731.823 162 756 186.177 756 216Lnan nanL756 216Lnan nanL756 216C726.177 216 702 191.823 702 162Lnan nanL702 162Lnan nanZ" fill="#5AA6DD"/>
<path d="Mnan nanL702 162C672.177 162 648 137.823 648 108Lnan nanL648 108Lnan nanL648 108C677.823 108 702 132.177 702 162Lnan nanL702 162Lnan nanZ" fill="#5AA6DD" fill-opacity="0.6"/>
<path d="Mnan nanL648 216C677.823 216 702 191.823 702 162Lnan nanL702 162Lnan nanL702 162C672.177 162 648 186.177 648 216Lnan nanL648 216Lnan nanZ" fill="#5AA6DD" fill-opacity="0.6"/>
</g>
<g opacity="0.16">
<path d="M594 162C564.177 162 540 186.177 540 216L648 216C648 186.177 623.823 162 594 162Z" fill="#5AA6DD"/>
<path d="M594 162C623.823 162 648 137.823 648 108L540 108C540 137.823 564.177 162 594 162Z" fill="#5AA6DD" fill-opacity="0.6"/>
</g>
<g opacity="0.16">
<path d="M472.5 108L472.5 216L432 216L432 108L472.5 108Z" fill="#5AA6DD" fill-opacity="0.6"/>
<path d="M540 108L540 216L499.5 216L499.5 108L540 108Z" fill="#5AA6DD"/>
</g>
<g opacity="0.16">
<path d="M324 216V108C383.647 108 432 156.353 432 216H324Z" fill="#5AA6DD" fill-opacity="0.6"/>
<path fill-rule="evenodd" clip-rule="evenodd" d="M324 175.651V141.769C324.561 141.756 325.124 141.75 325.688 141.75C366.695 141.75 399.938 174.993 399.938 216H364.349C364.449 214.888 364.5 213.763 364.5 212.625C364.5 192.121 347.879 175.5 327.375 175.5C326.237 175.5 325.112 175.551 324 175.651Z" fill="#5AA6DD"/>
</g>
<g opacity="0.16">
<path d="M270 162C240.177 162 216 137.823 216 108L324 108C324 137.823 299.823 162 270 162Z" fill="#5AA6DD"/>
<path d="M270 162C299.823 162 324 186.177 324 216L216 216C216 186.177 240.177 162 270 162Z" fill="#5AA6DD" fill-opacity="0.6"/>
</g>
<g opacity="0.16">
<path d="Mnan nanL216 162C186.177 162 162 137.823 162 108Lnan nanL162 108Lnan nanL162 108C191.823 108 216 132.177 216 162Lnan nanL216 162Lnan nanZ" fill="#5AA6DD"/>
<path d="Mnan nanL216 162C186.177 162 162 186.177 162 216Lnan nanL162 216Lnan nanL162 216C191.823 216 216 191.823 216 162Lnan nanL216 162Lnan nanZ" fill="#5AA6DD"/>
<path d="Mnan nanL108 162C137.823 162 162 137.823 162 108Lnan nanL162 108Lnan nanL162 108C132.177 108 108 132.177 108 162Lnan nanL108 162Lnan nanZ" fill="#5AA6DD" fill-opacity="0.6"/>
<path d="Mnan nanL108 162C137.823 162 162 186.177 162 216Lnan nanL162 216Lnan nanL162 216C132.177 216 108 191.823 108 162Lnan nanL108 162Lnan nanZ" fill="#5AA6DD" fill-opacity="0.6"/>
</g>
<g opacity="0.16">
<path d="M108 162C108 132.177 83.8234 108 54 108Lnan nanL54 108C24.1766 108 0 132.177 0 162V216H108V162Z" fill="#5AA6DD" fill-opacity="0.6"/>
<path d="M20.25 162C20.25 180.64 35.3604 195.75 54 195.75C72.6396 195.75 87.75 180.64 87.75 162C87.75 143.36 72.6396 128.25 54 128.25C35.3604 128.25 20.25 143.36 20.25 162Z" fill="#5AA6DD"/>
</g>
<g opacity="0.16">
<path d="Mnan nanL1026 54C996.177 54 972 78.1766 972 108Lnan nanL972 108Lnan nanL972 108C1001.82 108 1026 83.8234 1026 54Lnan nanL1026 54Lnan nanZ" fill="#5AA6DD"/>
<path d="Mnan nanL1026 54C996.177 54 972 29.8234 972 0Lnan nanL972 0Lnan nanL972 0C1001.82 -3.5564e-07 1026 24.1766 1026 54Lnan nanL1026 54Lnan nanZ" fill="#5AA6DD"/>
<path d="Mnan nanL1026 54C1055.82 54 1080 78.1766 1080 108Lnan nanL1080 108Lnan nanL1080 108C1050.18 108 1026 83.8234 1026 54Lnan nanL1026 54Lnan nanZ" fill="#5AA6DD" fill-opacity="0.6"/>
<path d="Mnan nanL1080 2.36041e-06C1050.18 1.05679e-06 1026 24.1766 1026 54Lnan nanL1026 54Lnan nanL1026 54C1055.82 54 1080 29.8234 1080 2.36041e-06Lnan nanL1080 2.36041e-06Lnan nanZ" fill="#5AA6DD" fill-opacity="0.6"/>
</g>
<g opacity="0.16">
<path d="M904.5 0L904.5 108L864 108L864 1.77031e-06L904.5 0Z" fill="#5AA6DD" fill-opacity="0.6"/>
<path d="M972 0L972 108L931.5 108L931.5 1.77031e-06L972 0Z" fill="#5AA6DD"/>
</g>
<g opacity="0.16">
<path d="M756 54C756 24.1766 780.177 0 810 0C839.823 0 864 24.1766 864 54C864 83.8234 839.823 108 810 108C780.177 108 756 83.8234 756 54Z" fill="#5AA6DD"/>
<path d="M776.25 54C776.25 35.3604 791.36 20.25 810 20.25C828.64 20.25 843.75 35.3604 843.75 54C843.75 72.6396 828.64 87.75 810 87.75C791.36 87.75 776.25 72.6396 776.25 54Z" fill="#5AA6DD" fill-opacity="0.6"/>
<path d="M796.5 54C796.5 46.5442 802.544 40.5 810 40.5C817.456 40.5 823.5 46.5442 823.5 54C823.5 61.4558 817.456 67.5 810 67.5C802.544 67.5 796.5 61.4558 796.5 54Z" fill="#5AA6DD"/>
</g>
<g opacity="0.16">
<path d="M648 54C648 24.1766 672.177 0 702 0H756V54C756 83.8234 731.823 108 702 108C672.177 108 648 83.8234 648 54Z" fill="#5AA6DD" fill-opacity="0.6"/>
</g>
<g opacity="0.16">
<path d="Mnan nanL540 54C569.823 54 594 78.1766 594 108Lnan nanL594 108Lnan nanL594 108C564.177 108 540 83.8234 540 54Lnan nanL540 54Lnan nanZ" fill="#5AA6DD"/>
<path d="Mnan nanL540 54C569.823 54 594 29.8234 594 0Lnan nanL594 0Lnan nanL594 0C564.177 -3.5564e-07 540 24.1766 540 54Lnan nanL540 54Lnan nanZ" fill="#5AA6DD"/>
<path d="Mnan nanL648 54C618.177 54 594 78.1766 594 108Lnan nanL594 108Lnan nanL594 108C623.823 108 648 83.8234 648 54Lnan nanL648 54Lnan nanZ" fill="#5AA6DD" fill-opacity="0.6"/>
<path d="Mnan nanL648 54C618.177 54 594 29.8234 594 0Lnan nanL594 0Lnan nanL594 0C623.823 -1.30362e-06 648 24.1766 648 54Lnan nanL648 54Lnan nanZ" fill="#5AA6DD" fill-opacity="0.6"/>
</g>
<g opacity="0.16">
<path d="M486 54C456.177 54 432 29.8234 432 -4.72083e-06L540 0C540 29.8234 515.823 54 486 54Z" fill="#5AA6DD"/>
<path d="M486 54C515.823 54 540 78.1766 540 108L432 108C432 78.1766 456.177 54 486 54Z" fill="#5AA6DD" fill-opacity="0.6"/>
</g>
<g opacity="0.16">
<path d="M432 54C432 83.8234 407.823 108 378 108H324V54C324 24.1766 348.177 0 378 0C407.823 0 432 24.1766 432 54Z" fill="#5AA6DD"/>
</g>
<g opacity="0.16">
<path d="M256.5 0L256.5 108L216 108L216 1.77031e-06L256.5 0Z" fill="#5AA6DD" fill-opacity="0.6"/>
<path d="M324 0L324 108L283.5 108L283.5 1.77031e-06L324 0Z" fill="#5AA6DD"/>
</g>
<g opacity="0.16">
<path d="Mnan nanL162 54C191.823 54 216 29.8234 216 0Lnan nanL216 0Lnan nanL216 0C186.177 1.30362e-06 162 24.1766 162 54Lnan nanL162 54Lnan nanZ" fill="#5AA6DD"/>
<path d="Mnan nanL162 54C191.823 54 216 78.1766 216 108Lnan nanL216 108Lnan nanL216 108C186.177 108 162 83.8234 162 54Lnan nanL162 54Lnan nanZ" fill="#5AA6DD"/>
<path d="Mnan nanL162 54C132.177 54 108 29.8234 108 3.8147e-06Lnan nanL108 3.8147e-06Lnan nanL108 3.8147e-06C137.823 2.51108e-06 162 24.1766 162 54Lnan nanL162 54Lnan nanZ" fill="#5AA6DD" fill-opacity="0.6"/>
<path d="Mnan nanL108 108C137.823 108 162 83.8234 162 54Lnan nanL162 54Lnan nanL162 54C132.177 54 108 78.1766 108 108Lnan nanL108 108Lnan nanZ" fill="#5AA6DD" fill-opacity="0.6"/>
</g>
<g opacity="0.16">
<path d="M0 54C0 83.8234 24.1766 108 54 108H108V54C108 24.1766 83.8234 0 54 0C24.1766 0 0 24.1766 0 54Z" fill="#5AA6DD" fill-opacity="0.6"/>
</g>
</g>
</g>
<g opacity="0.8">
<g opacity="0.8">
<g opacity="0.16">
<path d="M2052 378C2052 348.177 2076.18 324 2106 324C2135.82 324 2160 348.177 2160 378C2160 407.823 2135.82 432 2106 432C2076.18 432 2052 407.823 2052 378Z" fill="#5AA6DD" fill-opacity="0.6"/>
<path fill-rule="evenodd" clip-rule="evenodd" d="M2106 344.25C2087.36 344.25 2072.25 359.36 2072.25 378C2072.25 396.64 2087.36 411.75 2106 411.75C2124.64 411.75 2139.75 396.64 2139.75 378C2139.75 359.36 2124.64 344.25 2106 344.25ZM2106 364.5C2098.54 364.5 2092.5 370.544 2092.5 378C2092.5 385.456 2098.54 391.5 2106 391.5C2113.46 391.5 2119.5 385.456 2119.5 378C2119.5 370.544 2113.46 364.5 2106 364.5Z" fill="#5AA6DD"/>
</g>
<g opacity="0.16">
<path d="M2052 324V432C1992.35 432 1944 383.647 1944 324H2052Z" fill="#5AA6DD" fill-opacity="0.6"/>
<path fill-rule="evenodd" clip-rule="evenodd" d="M2052 364.349V398.231C2051.44 398.244 2050.88 398.25 2050.31 398.25C2009.31 398.25 1976.06 365.007 1976.06 324H2011.65C2011.55 325.112 2011.5 326.237 2011.5 327.375C2011.5 347.879 2028.12 364.5 2048.62 364.5C2049.76 364.5 2050.89 364.449 2052 364.349Z" fill="#5AA6DD"/>
</g>
<g opacity="0.16">
<path d="M1944 378C1944 348.177 1919.82 324 1890 324H1836V378C1836 407.823 1860.18 432 1890 432C1919.82 432 1944 407.823 1944 378Z" fill="#5AA6DD"/>
</g>
<g opacity="0.16">
<path d="Mnan nanL1782 378C1811.82 378 1836 353.823 1836 324Lnan nanL1836 324Lnan nanL1836 324C1806.18 324 1782 348.177 1782 378Lnan nanL1782 378Lnan nanZ" fill="#5AA6DD"/>
<path d="Mnan nanL1782 378C1811.82 378 1836 402.177 1836 432Lnan nanL1836 432Lnan nanL1836 432C1806.18 432 1782 407.823 1782 378Lnan nanL1782 378Lnan nanZ" fill="#5AA6DD"/>
<path d="Mnan nanL1782 378C1752.18 378 1728 353.823 1728 324Lnan nanL1728 324Lnan nanL1728 324C1757.82 324 1782 348.177 1782 378Lnan nanL1782 378Lnan nanZ" fill="#5AA6DD" fill-opacity="0.6"/>
<path d="Mnan nanL1728 432C1757.82 432 1782 407.823 1782 378Lnan nanL1782 378Lnan nanL1782 378C1752.18 378 1728 402.177 1728 432Lnan nanL1728 432Lnan nanZ" fill="#5AA6DD" fill-opacity="0.6"/>
</g>
<g opacity="0.16">
<path d="M1674 378C1644.18 378 1620 402.177 1620 432L1728 432C1728 402.177 1703.82 378 1674 378Z" fill="#5AA6DD"/>
<path d="M1674 378C1703.82 378 1728 353.823 1728 324L1620 324C1620 353.823 1644.18 378 1674 378Z" fill="#5AA6DD" fill-opacity="0.6"/>
</g>
<g opacity="0.16">
<path d="M1552.5 324L1552.5 432L1512 432L1512 324L1552.5 324Z" fill="#5AA6DD" fill-opacity="0.6"/>
<path d="M1620 324L1620 432L1579.5 432L1579.5 324L1620 324Z" fill="#5AA6DD"/>
</g>
<g opacity="0.16">
<path d="M1404 432V324C1463.65 324 1512 372.353 1512 432H1404Z" fill="#5AA6DD" fill-opacity="0.6"/>
<path fill-rule="evenodd" clip-rule="evenodd" d="M1404 391.651V357.769C1404.56 357.756 1405.12 357.75 1405.69 357.75C1446.69 357.75 1479.94 390.993 1479.94 432H1444.35C1444.45 430.888 1444.5 429.763 1444.5 428.625C1444.5 408.121 1427.88 391.5 1407.38 391.5C1406.24 391.5 1405.11 391.551 1404 391.651Z" fill="#5AA6DD"/>
</g>
<g opacity="0.16">
<path d="M1350 378C1320.18 378 1296 353.823 1296 324L1404 324C1404 353.823 1379.82 378 1350 378Z" fill="#5AA6DD"/>
<path d="M1350 378C1379.82 378 1404 402.177 1404 432L1296 432C1296 402.177 1320.18 378 1350 378Z" fill="#5AA6DD" fill-opacity="0.6"/>
</g>
<g opacity="0.16">
<path d="Mnan nanL1296 378C1266.18 378 1242 353.823 1242 324Lnan nanL1242 324Lnan nanL1242 324C1271.82 324 1296 348.177 1296 378Lnan nanL1296 378Lnan nanZ" fill="#5AA6DD"/>
<path d="Mnan nanL1296 378C1266.18 378 1242 402.177 1242 432Lnan nanL1242 432Lnan nanL1242 432C1271.82 432 1296 407.823 1296 378Lnan nanL1296 378Lnan nanZ" fill="#5AA6DD"/>
<path d="Mnan nanL1188 378C1217.82 378 1242 353.823 1242 324Lnan nanL1242 324Lnan nanL1242 324C1212.18 324 1188 348.177 1188 378Lnan nanL1188 378Lnan nanZ" fill="#5AA6DD" fill-opacity="0.6"/>
<path d="Mnan nanL1188 378C1217.82 378 1242 402.177 1242 432Lnan nanL1242 432Lnan nanL1242 432C1212.18 432 1188 407.823 1188 378Lnan nanL1188 378Lnan nanZ" fill="#5AA6DD" fill-opacity="0.6"/>
</g>
<g opacity="0.16">
<path d="M1188 378C1188 348.177 1163.82 324 1134 324Lnan nanL1134 324C1104.18 324 1080 348.177 1080 378V432H1188V378Z" fill="#5AA6DD" fill-opacity="0.6"/>
<path d="M1100.25 378C1100.25 396.64 1115.36 411.75 1134 411.75C1152.64 411.75 1167.75 396.64 1167.75 378C1167.75 359.36 1152.64 344.25 1134 344.25C1115.36 344.25 1100.25 359.36 1100.25 378Z" fill="#5AA6DD"/>
</g>
<g opacity="0.16">
<path d="Mnan nanL2106 270C2076.18 270 2052 294.177 2052 324Lnan nanL2052 324Lnan nanL2052 324C2081.82 324 2106 299.823 2106 270Lnan nanL2106 270Lnan nanZ" fill="#5AA6DD"/>
<path d="Mnan nanL2106 270C2076.18 270 2052 245.823 2052 216Lnan nanL2052 216Lnan nanL2052 216C2081.82 216 2106 240.177 2106 270Lnan nanL2106 270Lnan nanZ" fill="#5AA6DD"/>
<path d="Mnan nanL2106 270C2135.82 270 2160 294.177 2160 324Lnan nanL2160 324Lnan nanL2160 324C2130.18 324 2106 299.823 2106 270Lnan nanL2106 270Lnan nanZ" fill="#5AA6DD" fill-opacity="0.6"/>
<path d="Mnan nanL2160 216C2130.18 216 2106 240.177 2106 270Lnan nanL2106 270Lnan nanL2106 270C2135.82 270 2160 245.823 2160 216Lnan nanL2160 216Lnan nanZ" fill="#5AA6DD" fill-opacity="0.6"/>
</g>
<g opacity="0.16">
<path d="M1984.5 216L1984.5 324L1944 324L1944 216L1984.5 216Z" fill="#5AA6DD" fill-opacity="0.6"/>
<path d="M2052 216L2052 324L2011.5 324L2011.5 216L2052 216Z" fill="#5AA6DD"/>
</g>
<g opacity="0.16">
<path d="M1836 270C1836 240.177 1860.18 216 1890 216C1919.82 216 1944 240.177 1944 270C1944 299.823 1919.82 324 1890 324C1860.18 324 1836 299.823 1836 270Z" fill="#5AA6DD"/>
<path d="M1856.25 270C1856.25 251.36 1871.36 236.25 1890 236.25C1908.64 236.25 1923.75 251.36 1923.75 270C1923.75 288.64 1908.64 303.75 1890 303.75C1871.36 303.75 1856.25 288.64 1856.25 270Z" fill="#5AA6DD" fill-opacity="0.6"/>
<path d="M1876.5 270C1876.5 262.544 1882.54 256.5 1890 256.5C1897.46 256.5 1903.5 262.544 1903.5 270C1903.5 277.456 1897.46 283.5 1890 283.5C1882.54 283.5 1876.5 277.456 1876.5 270Z" fill="#5AA6DD"/>
</g>
<g opacity="0.16">
<path d="M1728 270C1728 240.177 1752.18 216 1782 216H1836V270C1836 299.823 1811.82 324 1782 324C1752.18 324 1728 299.823 1728 270Z" fill="#5AA6DD" fill-opacity="0.6"/>
</g>
<g opacity="0.16">
<path d="Mnan nanL1620 270C1649.82 270 1674 294.177 1674 324Lnan nanL1674 324Lnan nanL1674 324C1644.18 324 1620 299.823 1620 270Lnan nanL1620 270Lnan nanZ" fill="#5AA6DD"/>
<path d="Mnan nanL1620 270C1649.82 270 1674 245.823 1674 216Lnan nanL1674 216Lnan nanL1674 216C1644.18 216 1620 240.177 1620 270Lnan nanL1620 270Lnan nanZ" fill="#5AA6DD"/>
<path d="Mnan nanL1728 270C1698.18 270 1674 294.177 1674 324Lnan nanL1674 324Lnan nanL1674 324C1703.82 324 1728 299.823 1728 270Lnan nanL1728 270Lnan nanZ" fill="#5AA6DD" fill-opacity="0.6"/>
<path d="Mnan nanL1728 270C1698.18 270 1674 245.823 1674 216Lnan nanL1674 216Lnan nanL1674 216C1703.82 216 1728 240.177 1728 270Lnan nanL1728 270Lnan nanZ" fill="#5AA6DD" fill-opacity="0.6"/>
</g>
<g opacity="0.16">
<path d="M1566 270C1536.18 270 1512 245.823 1512 216L1620 216C1620 245.823 1595.82 270 1566 270Z" fill="#5AA6DD"/>
<path d="M1566 270C1595.82 270 1620 294.177 1620 324L1512 324C1512 294.177 1536.18 270 1566 270Z" fill="#5AA6DD" fill-opacity="0.6"/>
</g>
<g opacity="0.16">
<path d="M1512 270C1512 299.823 1487.82 324 1458 324H1404V270C1404 240.177 1428.18 216 1458 216C1487.82 216 1512 240.177 1512 270Z" fill="#5AA6DD"/>
</g>
<g opacity="0.16">
<path d="M1336.5 216L1336.5 324L1296 324L1296 216L1336.5 216Z" fill="#5AA6DD" fill-opacity="0.6"/>
<path d="M1404 216L1404 324L1363.5 324L1363.5 216L1404 216Z" fill="#5AA6DD"/>
</g>
<g opacity="0.16">
<path d="Mnan nanL1242 270C1271.82 270 1296 245.823 1296 216Lnan nanL1296 216Lnan nanL1296 216C1266.18 216 1242 240.177 1242 270Lnan nanL1242 270Lnan nanZ" fill="#5AA6DD"/>
<path d="Mnan nanL1242 270C1271.82 270 1296 294.177 1296 324Lnan nanL1296 324Lnan nanL1296 324C1266.18 324 1242 299.823 1242 270Lnan nanL1242 270Lnan nanZ" fill="#5AA6DD"/>
<path d="Mnan nanL1242 270C1212.18 270 1188 245.823 1188 216Lnan nanL1188 216Lnan nanL1188 216C1217.82 216 1242 240.177 1242 270Lnan nanL1242 270Lnan nanZ" fill="#5AA6DD" fill-opacity="0.6"/>
<path d="Mnan nanL1188 324C1217.82 324 1242 299.823 1242 270Lnan nanL1242 270Lnan nanL1242 270C1212.18 270 1188 294.177 1188 324Lnan nanL1188 324Lnan nanZ" fill="#5AA6DD" fill-opacity="0.6"/>
</g>
<g opacity="0.16">
<path d="M1080 270C1080 299.823 1104.18 324 1134 324H1188V270C1188 240.177 1163.82 216 1134 216C1104.18 216 1080 240.177 1080 270Z" fill="#5AA6DD" fill-opacity="0.6"/>
</g>
</g>
<g opacity="0.8">
<g opacity="0.16">
<path d="M972 378C972 348.177 996.177 324 1026 324C1055.82 324 1080 348.177 1080 378C1080 407.823 1055.82 432 1026 432C996.177 432 972 407.823 972 378Z" fill="#5AA6DD" fill-opacity="0.6"/>
<path fill-rule="evenodd" clip-rule="evenodd" d="M1026 344.25C1007.36 344.25 992.25 359.36 992.25 378C992.25 396.64 1007.36 411.75 1026 411.75C1044.64 411.75 1059.75 396.64 1059.75 378C1059.75 359.36 1044.64 344.25 1026 344.25ZM1026 364.5C1018.54 364.5 1012.5 370.544 1012.5 378C1012.5 385.456 1018.54 391.5 1026 391.5C1033.46 391.5 1039.5 385.456 1039.5 378C1039.5 370.544 1033.46 364.5 1026 364.5Z" fill="#5AA6DD"/>
</g>
<g opacity="0.16">
<path d="M972 324V432C912.353 432 864 383.647 864 324H972Z" fill="#5AA6DD" fill-opacity="0.6"/>
<path fill-rule="evenodd" clip-rule="evenodd" d="M972 364.349V398.231C971.439 398.244 970.876 398.25 970.312 398.25C929.305 398.25 896.062 365.007 896.062 324H931.651C931.551 325.112 931.5 326.237 931.5 327.375C931.5 347.879 948.121 364.5 968.625 364.5C969.763 364.5 970.888 364.449 972 364.349Z" fill="#5AA6DD"/>
</g>
<g opacity="0.16">
<path d="M864 378C864 348.177 839.823 324 810 324H756V378C756 407.823 780.177 432 810 432C839.823 432 864 407.823 864 378Z" fill="#5AA6DD"/>
</g>
<g opacity="0.16">
<path d="Mnan nanL702 378C731.823 378 756 353.823 756 324Lnan nanL756 324Lnan nanL756 324C726.177 324 702 348.177 702 378Lnan nanL702 378Lnan nanZ" fill="#5AA6DD"/>
<path d="Mnan nanL702 378C731.823 378 756 402.177 756 432Lnan nanL756 432Lnan nanL756 432C726.177 432 702 407.823 702 378Lnan nanL702 378Lnan nanZ" fill="#5AA6DD"/>
<path d="Mnan nanL702 378C672.177 378 648 353.823 648 324Lnan nanL648 324Lnan nanL648 324C677.823 324 702 348.177 702 378Lnan nanL702 378Lnan nanZ" fill="#5AA6DD" fill-opacity="0.6"/>
<path d="Mnan nanL648 432C677.823 432 702 407.823 702 378Lnan nanL702 378Lnan nanL702 378C672.177 378 648 402.177 648 432Lnan nanL648 432Lnan nanZ" fill="#5AA6DD" fill-opacity="0.6"/>
</g>
<g opacity="0.16">
<path d="M594 378C564.177 378 540 402.177 540 432L648 432C648 402.177 623.823 378 594 378Z" fill="#5AA6DD"/>
<path d="M594 378C623.823 378 648 353.823 648 324L540 324C540 353.823 564.177 378 594 378Z" fill="#5AA6DD" fill-opacity="0.6"/>
</g>
<g opacity="0.16">
<path d="M472.5 324L472.5 432L432 432L432 324L472.5 324Z" fill="#5AA6DD" fill-opacity="0.6"/>
<path d="M540 324L540 432L499.5 432L499.5 324L540 324Z" fill="#5AA6DD"/>
</g>
<g opacity="0.16">
<path d="M324 432V324C383.647 324 432 372.353 432 432H324Z" fill="#5AA6DD" fill-opacity="0.6"/>
<path fill-rule="evenodd" clip-rule="evenodd" d="M324 391.651V357.769C324.561 357.756 325.124 357.75 325.688 357.75C366.695 357.75 399.938 390.993 399.938 432H364.349C364.449 430.888 364.5 429.763 364.5 428.625C364.5 408.121 347.879 391.5 327.375 391.5C326.237 391.5 325.112 391.551 324 391.651Z" fill="#5AA6DD"/>
</g>
<g opacity="0.16">
<path d="M270 378C240.177 378 216 353.823 216 324L324 324C324 353.823 299.823 378 270 378Z" fill="#5AA6DD"/>
<path d="M270 378C299.823 378 324 402.177 324 432L216 432C216 402.177 240.177 378 270 378Z" fill="#5AA6DD" fill-opacity="0.6"/>
</g>
<g opacity="0.16">
<path d="Mnan nanL216 378C186.177 378 162 353.823 162 324Lnan nanL162 324Lnan nanL162 324C191.823 324 216 348.177 216 378Lnan nanL216 378Lnan nanZ" fill="#5AA6DD"/>
<path d="Mnan nanL216 378C186.177 378 162 402.177 162 432Lnan nanL162 432Lnan nanL162 432C191.823 432 216 407.823 216 378Lnan nanL216 378Lnan nanZ" fill="#5AA6DD"/>
<path d="Mnan nanL108 378C137.823 378 162 353.823 162 324Lnan nanL162 324Lnan nanL162 324C132.177 324 108 348.177 108 378Lnan nanL108 378Lnan nanZ" fill="#5AA6DD" fill-opacity="0.6"/>
<path d="Mnan nanL108 378C137.823 378 162 402.177 162 432Lnan nanL162 432Lnan nanL162 432C132.177 432 108 407.823 108 378Lnan nanL108 378Lnan nanZ" fill="#5AA6DD" fill-opacity="0.6"/>
</g>
<g opacity="0.16">
<path d="M108 378C108 348.177 83.8234 324 54 324Lnan nanL54 324C24.1766 324 0 348.177 0 378V432H108V378Z" fill="#5AA6DD" fill-opacity="0.6"/>
<path d="M20.25 378C20.25 396.64 35.3604 411.75 54 411.75C72.6396 411.75 87.75 396.64 87.75 378C87.75 359.36 72.6396 344.25 54 344.25C35.3604 344.25 20.25 359.36 20.25 378Z" fill="#5AA6DD"/>
</g>
<g opacity="0.16">
<path d="Mnan nanL1026 270C996.177 270 972 294.177 972 324Lnan nanL972 324Lnan nanL972 324C1001.82 324 1026 299.823 1026 270Lnan nanL1026 270Lnan nanZ" fill="#5AA6DD"/>
<path d="Mnan nanL1026 270C996.177 270 972 245.823 972 216Lnan nanL972 216Lnan nanL972 216C1001.82 216 1026 240.177 1026 270Lnan nanL1026 270Lnan nanZ" fill="#5AA6DD"/>
<path d="Mnan nanL1026 270C1055.82 270 1080 294.177 1080 324Lnan nanL1080 324Lnan nanL1080 324C1050.18 324 1026 299.823 1026 270Lnan nanL1026 270Lnan nanZ" fill="#5AA6DD" fill-opacity="0.6"/>
<path d="Mnan nanL1080 216C1050.18 216 1026 240.177 1026 270Lnan nanL1026 270Lnan nanL1026 270C1055.82 270 1080 245.823 1080 216Lnan nanL1080 216Lnan nanZ" fill="#5AA6DD" fill-opacity="0.6"/>
</g>
<g opacity="0.16">
<path d="M904.5 216L904.5 324L864 324L864 216L904.5 216Z" fill="#5AA6DD" fill-opacity="0.6"/>
<path d="M972 216L972 324L931.5 324L931.5 216L972 216Z" fill="#5AA6DD"/>
</g>
<g opacity="0.16">
<path d="M756 270C756 240.177 780.177 216 810 216C839.823 216 864 240.177 864 270C864 299.823 839.823 324 810 324C780.177 324 756 299.823 756 270Z" fill="#5AA6DD"/>
<path d="M776.25 270C776.25 251.36 791.36 236.25 810 236.25C828.64 236.25 843.75 251.36 843.75 270C843.75 288.64 828.64 303.75 810 303.75C791.36 303.75 776.25 288.64 776.25 270Z" fill="#5AA6DD" fill-opacity="0.6"/>
<path d="M796.5 270C796.5 262.544 802.544 256.5 810 256.5C817.456 256.5 823.5 262.544 823.5 270C823.5 277.456 817.456 283.5 810 283.5C802.544 283.5 796.5 277.456 796.5 270Z" fill="#5AA6DD"/>
</g>
<g opacity="0.16">
<path d="M648 270C648 240.177 672.177 216 702 216H756V270C756 299.823 731.823 324 702 324C672.177 324 648 299.823 648 270Z" fill="#5AA6DD" fill-opacity="0.6"/>
</g>
<g opacity="0.16">
<path d="Mnan nanL540 270C569.823 270 594 294.177 594 324Lnan nanL594 324Lnan nanL594 324C564.177 324 540 299.823 540 270Lnan nanL540 270Lnan nanZ" fill="#5AA6DD"/>
<path d="Mnan nanL540 270C569.823 270 594 245.823 594 216Lnan nanL594 216Lnan nanL594 216C564.177 216 540 240.177 540 270Lnan nanL540 270Lnan nanZ" fill="#5AA6DD"/>
<path d="Mnan nanL648 270C618.177 270 594 294.177 594 324Lnan nanL594 324Lnan nanL594 324C623.823 324 648 299.823 648 270Lnan nanL648 270Lnan nanZ" fill="#5AA6DD" fill-opacity="0.6"/>
<path d="Mnan nanL648 270C618.177 270 594 245.823 594 216Lnan nanL594 216Lnan nanL594 216C623.823 216 648 240.177 648 270Lnan nanL648 270Lnan nanZ" fill="#5AA6DD" fill-opacity="0.6"/>
</g>
<g opacity="0.16">
<path d="M486 270C456.177 270 432 245.823 432 216L540 216C540 245.823 515.823 270 486 270Z" fill="#5AA6DD"/>
<path d="M486 270C515.823 270 540 294.177 540 324L432 324C432 294.177 456.177 270 486 270Z" fill="#5AA6DD" fill-opacity="0.6"/>
</g>
<g opacity="0.16">
<path d="M432 270C432 299.823 407.823 324 378 324H324V270C324 240.177 348.177 216 378 216C407.823 216 432 240.177 432 270Z" fill="#5AA6DD"/>
</g>
<g opacity="0.16">
<path d="M256.5 216L256.5 324L216 324L216 216L256.5 216Z" fill="#5AA6DD" fill-opacity="0.6"/>
<path d="M324 216L324 324L283.5 324L283.5 216L324 216Z" fill="#5AA6DD"/>
</g>
<g opacity="0.16">
<path d="Mnan nanL162 270C191.823 270 216 245.823 216 216Lnan nanL216 216Lnan nanL216 216C186.177 216 162 240.177 162 270Lnan nanL162 270Lnan nanZ" fill="#5AA6DD"/>
<path d="Mnan nanL162 270C191.823 270 216 294.177 216 324Lnan nanL216 324Lnan nanL216 324C186.177 324 162 299.823 162 270Lnan nanL162 270Lnan nanZ" fill="#5AA6DD"/>
<path d="Mnan nanL162 270C132.177 270 108 245.823 108 216Lnan nanL108 216Lnan nanL108 216C137.823 216 162 240.177 162 270Lnan nanL162 270Lnan nanZ" fill="#5AA6DD" fill-opacity="0.6"/>
<path d="Mnan nanL108 324C137.823 324 162 299.823 162 270Lnan nanL162 270Lnan nanL162 270C132.177 270 108 294.177 108 324Lnan nanL108 324Lnan nanZ" fill="#5AA6DD" fill-opacity="0.6"/>
</g>
<g opacity="0.16">
<path d="M0 270C0 299.823 24.1766 324 54 324H108V270C108 240.177 83.8234 216 54 216C24.1766 216 0 240.177 0 270Z" fill="#5AA6DD" fill-opacity="0.6"/>
</g>
</g>
</g>
<g opacity="0.8">
<g opacity="0.8">
<g opacity="0.16">
<path d="M108 486C108 515.823 83.8234 540 54 540C24.1766 540 0 515.823 0 486C0 456.177 24.1766 432 54 432C83.8234 432 108 456.177 108 486Z" fill="#5AA6DD" fill-opacity="0.6"/>
<path fill-rule="evenodd" clip-rule="evenodd" d="M54 519.75C72.6396 519.75 87.75 504.64 87.75 486C87.75 467.36 72.6396 452.25 54 452.25C35.3604 452.25 20.25 467.36 20.25 486C20.25 504.64 35.3604 519.75 54 519.75ZM54 499.5C61.4558 499.5 67.5 493.456 67.5 486C67.5 478.544 61.4558 472.5 54 472.5C46.5442 472.5 40.5 478.544 40.5 486C40.5 493.456 46.5442 499.5 54 499.5Z" fill="#5AA6DD"/>
</g>
<g opacity="0.16">
<path d="M108 540V432C167.647 432 216 480.353 216 540H108Z" fill="#5AA6DD" fill-opacity="0.6"/>
<path fill-rule="evenodd" clip-rule="evenodd" d="M108 499.651V465.769C108.561 465.756 109.124 465.75 109.688 465.75C150.695 465.75 183.938 498.993 183.938 540H148.349C148.449 538.888 148.5 537.763 148.5 536.625C148.5 516.121 131.879 499.5 111.375 499.5C110.237 499.5 109.112 499.551 108 499.651Z" fill="#5AA6DD"/>
</g>
<g opacity="0.16">
<path d="M216 486C216 515.823 240.177 540 270 540H324V486C324 456.177 299.823 432 270 432C240.177 432 216 456.177 216 486Z" fill="#5AA6DD"/>
</g>
<g opacity="0.16">
<path d="Mnan nanL378 486C348.177 486 324 510.177 324 540Lnan nanL324 540Lnan nanL324 540C353.823 540 378 515.823 378 486Lnan nanL378 486Lnan nanZ" fill="#5AA6DD"/>
<path d="Mnan nanL378 486C348.177 486 324 461.823 324 432Lnan nanL324 432Lnan nanL324 432C353.823 432 378 456.177 378 486Lnan nanL378 486Lnan nanZ" fill="#5AA6DD"/>
<path d="Mnan nanL378 486C407.823 486 432 510.177 432 540Lnan nanL432 540Lnan nanL432 540C402.177 540 378 515.823 378 486Lnan nanL378 486Lnan nanZ" fill="#5AA6DD" fill-opacity="0.6"/>
<path d="Mnan nanL432 432C402.177 432 378 456.177 378 486Lnan nanL378 486Lnan nanL378 486C407.823 486 432 461.823 432 432Lnan nanL432 432Lnan nanZ" fill="#5AA6DD" fill-opacity="0.6"/>
</g>
<g opacity="0.16">
<path d="M486 486C515.823 486 540 461.823 540 432L432 432C432 461.823 456.177 486 486 486Z" fill="#5AA6DD"/>
<path d="M486 486C456.177 486 432 510.177 432 540L540 540C540 510.177 515.823 486 486 486Z" fill="#5AA6DD" fill-opacity="0.6"/>
</g>
<g opacity="0.16">
<path d="M607.5 540L607.5 432L648 432L648 540L607.5 540Z" fill="#5AA6DD" fill-opacity="0.6"/>
<path d="M540 540L540 432L580.5 432L580.5 540L540 540Z" fill="#5AA6DD"/>
</g>
<g opacity="0.16">
<path d="M756 432V540C696.353 540 648 491.647 648 432H756Z" fill="#5AA6DD" fill-opacity="0.6"/>
<path fill-rule="evenodd" clip-rule="evenodd" d="M756 472.349V506.231C755.439 506.244 754.876 506.25 754.312 506.25C713.305 506.25 680.062 473.007 680.062 432H715.651C715.551 433.112 715.5 434.237 715.5 435.375C715.5 455.879 732.121 472.5 752.625 472.5C753.763 472.5 754.888 472.449 756 472.349Z" fill="#5AA6DD"/>
</g>
<g opacity="0.16">
<path d="M810 486C839.823 486 864 510.177 864 540L756 540C756 510.177 780.177 486 810 486Z" fill="#5AA6DD"/>
<path d="M810 486C780.177 486 756 461.823 756 432L864 432C864 461.823 839.823 486 810 486Z" fill="#5AA6DD" fill-opacity="0.6"/>
</g>
<g opacity="0.16">
<path d="Mnan nanL864 486C893.823 486 918 510.177 918 540Lnan nanL918 540Lnan nanL918 540C888.177 540 864 515.823 864 486Lnan nanL864 486Lnan nanZ" fill="#5AA6DD"/>
<path d="Mnan nanL864 486C893.823 486 918 461.823 918 432Lnan nanL918 432Lnan nanL918 432C888.177 432 864 456.177 864 486Lnan nanL864 486Lnan nanZ" fill="#5AA6DD"/>
<path d="Mnan nanL972 486C942.177 486 918 510.177 918 540Lnan nanL918 540Lnan nanL918 540C947.823 540 972 515.823 972 486Lnan nanL972 486Lnan nanZ" fill="#5AA6DD" fill-opacity="0.6"/>
<path d="Mnan nanL972 486C942.177 486 918 461.823 918 432Lnan nanL918 432Lnan nanL918 432C947.823 432 972 456.177 972 486Lnan nanL972 486Lnan nanZ" fill="#5AA6DD" fill-opacity="0.6"/>
</g>
<g opacity="0.16">
<path d="M972 486C972 515.823 996.177 540 1026 540Lnan nanL1026 540C1055.82 540 1080 515.823 1080 486V432H972V486Z" fill="#5AA6DD" fill-opacity="0.6"/>
<path d="M1059.75 486C1059.75 467.36 1044.64 452.25 1026 452.25C1007.36 452.25 992.25 467.36 992.25 486C992.25 504.64 1007.36 519.75 1026 519.75C1044.64 519.75 1059.75 504.64 1059.75 486Z" fill="#5AA6DD"/>
</g>
<g opacity="0.16">
<path d="Mnan nanL54 594C83.8234 594 108 569.823 108 540Lnan nanL108 540Lnan nanL108 540C78.1766 540 54 564.177 54 594Lnan nanL54 594Lnan nanZ" fill="#5AA6DD"/>
<path d="Mnan nanL54 594C83.8234 594 108 618.177 108 648Lnan nanL108 648Lnan nanL108 648C78.1766 648 54 623.823 54 594Lnan nanL54 594Lnan nanZ" fill="#5AA6DD"/>
<path d="Mnan nanL54 594C24.1766 594 -1.05679e-06 569.823 -2.36041e-06 540Lnan nanL-2.36041e-06 540Lnan nanL-2.36041e-06 540C29.8234 540 54 564.177 54 594Lnan nanL54 594Lnan nanZ" fill="#5AA6DD" fill-opacity="0.6"/>
<path d="Mnan nanL0 648C29.8234 648 54 623.823 54 594Lnan nanL54 594Lnan nanL54 594C24.1766 594 1.30362e-06 618.177 0 648Lnan nanL0 648Lnan nanZ" fill="#5AA6DD" fill-opacity="0.6"/>
</g>
<g opacity="0.16">
<path d="M175.5 648L175.5 540L216 540L216 648L175.5 648Z" fill="#5AA6DD" fill-opacity="0.6"/>
<path d="M108 648L108 540L148.5 540L148.5 648L108 648Z" fill="#5AA6DD"/>
</g>
<g opacity="0.16">
<path d="M324 594C324 623.823 299.823 648 270 648C240.177 648 216 623.823 216 594C216 564.177 240.177 540 270 540C299.823 540 324 564.177 324 594Z" fill="#5AA6DD"/>
<path d="M303.75 594C303.75 612.64 288.64 627.75 270 627.75C251.36 627.75 236.25 612.64 236.25 594C236.25 575.36 251.36 560.25 270 560.25C288.64 560.25 303.75 575.36 303.75 594Z" fill="#5AA6DD" fill-opacity="0.6"/>
<path d="M283.5 594C283.5 601.456 277.456 607.5 270 607.5C262.544 607.5 256.5 601.456 256.5 594C256.5 586.544 262.544 580.5 270 580.5C277.456 580.5 283.5 586.544 283.5 594Z" fill="#5AA6DD"/>
</g>
<g opacity="0.16">
<path d="M432 594C432 623.823 407.823 648 378 648H324V594C324 564.177 348.177 540 378 540C407.823 540 432 564.177 432 594Z" fill="#5AA6DD" fill-opacity="0.6"/>
</g>
<g opacity="0.16">
<path d="Mnan nanL540 594C510.177 594 486 569.823 486 540Lnan nanL486 540Lnan nanL486 540C515.823 540 540 564.177 540 594Lnan nanL540 594Lnan nanZ" fill="#5AA6DD"/>
<path d="Mnan nanL540 594C510.177 594 486 618.177 486 648Lnan nanL486 648Lnan nanL486 648C515.823 648 540 623.823 540 594Lnan nanL540 594Lnan nanZ" fill="#5AA6DD"/>
<path d="Mnan nanL432 594C461.823 594 486 569.823 486 540Lnan nanL486 540Lnan nanL486 540C456.177 540 432 564.177 432 594Lnan nanL432 594Lnan nanZ" fill="#5AA6DD" fill-opacity="0.6"/>
<path d="Mnan nanL432 594C461.823 594 486 618.177 486 648Lnan nanL486 648Lnan nanL486 648C456.177 648 432 623.823 432 594Lnan nanL432 594Lnan nanZ" fill="#5AA6DD" fill-opacity="0.6"/>
</g>
<g opacity="0.16">
<path d="M594 594C623.823 594 648 618.177 648 648L540 648C540 618.177 564.177 594 594 594Z" fill="#5AA6DD"/>
<path d="M594 594C564.177 594 540 569.823 540 540L648 540C648 569.823 623.823 594 594 594Z" fill="#5AA6DD" fill-opacity="0.6"/>
</g>
<g opacity="0.16">
<path d="M648 594C648 564.177 672.177 540 702 540H756V594C756 623.823 731.823 648 702 648C672.177 648 648 623.823 648 594Z" fill="#5AA6DD"/>
</g>
<g opacity="0.16">
<path d="M823.5 648L823.5 540L864 540L864 648L823.5 648Z" fill="#5AA6DD" fill-opacity="0.6"/>
<path d="M756 648L756 540L796.5 540L796.5 648L756 648Z" fill="#5AA6DD"/>
</g>
<g opacity="0.16">
<path d="Mnan nanL918 594C888.177 594 864 618.177 864 648Lnan nanL864 648Lnan nanL864 648C893.823 648 918 623.823 918 594Lnan nanL918 594Lnan nanZ" fill="#5AA6DD"/>
<path d="Mnan nanL918 594C888.177 594 864 569.823 864 540Lnan nanL864 540Lnan nanL864 540C893.823 540 918 564.177 918 594Lnan nanL918 594Lnan nanZ" fill="#5AA6DD"/>
<path d="Mnan nanL918 594C947.823 594 972 618.177 972 648Lnan nanL972 648Lnan nanL972 648C942.177 648 918 623.823 918 594Lnan nanL918 594Lnan nanZ" fill="#5AA6DD" fill-opacity="0.6"/>
<path d="Mnan nanL972 540C942.177 540 918 564.177 918 594Lnan nanL918 594Lnan nanL918 594C947.823 594 972 569.823 972 540Lnan nanL972 540Lnan nanZ" fill="#5AA6DD" fill-opacity="0.6"/>
</g>
<g opacity="0.16">
<path d="M1080 594C1080 564.177 1055.82 540 1026 540H972V594C972 623.823 996.177 648 1026 648C1055.82 648 1080 623.823 1080 594Z" fill="#5AA6DD" fill-opacity="0.6"/>
</g>
</g>
<g opacity="0.8">
<g opacity="0.16">
<path d="M1188 486C1188 515.823 1163.82 540 1134 540C1104.18 540 1080 515.823 1080 486C1080 456.177 1104.18 432 1134 432C1163.82 432 1188 456.177 1188 486Z" fill="#5AA6DD" fill-opacity="0.6"/>
<path fill-rule="evenodd" clip-rule="evenodd" d="M1134 519.75C1152.64 519.75 1167.75 504.64 1167.75 486C1167.75 467.36 1152.64 452.25 1134 452.25C1115.36 452.25 1100.25 467.36 1100.25 486C1100.25 504.64 1115.36 519.75 1134 519.75ZM1134 499.5C1141.46 499.5 1147.5 493.456 1147.5 486C1147.5 478.544 1141.46 472.5 1134 472.5C1126.54 472.5 1120.5 478.544 1120.5 486C1120.5 493.456 1126.54 499.5 1134 499.5Z" fill="#5AA6DD"/>
</g>
<g opacity="0.16">
<path d="M1188 540V432C1247.65 432 1296 480.353 1296 540H1188Z" fill="#5AA6DD" fill-opacity="0.6"/>
<path fill-rule="evenodd" clip-rule="evenodd" d="M1188 499.651V465.769C1188.56 465.756 1189.12 465.75 1189.69 465.75C1230.69 465.75 1263.94 498.993 1263.94 540H1228.35C1228.45 538.888 1228.5 537.763 1228.5 536.625C1228.5 516.121 1211.88 499.5 1191.38 499.5C1190.24 499.5 1189.11 499.551 1188 499.651Z" fill="#5AA6DD"/>
</g>
<g opacity="0.16">
<path d="M1296 486C1296 515.823 1320.18 540 1350 540H1404V486C1404 456.177 1379.82 432 1350 432C1320.18 432 1296 456.177 1296 486Z" fill="#5AA6DD"/>
</g>
<g opacity="0.16">
<path d="Mnan nanL1458 486C1428.18 486 1404 510.177 1404 540Lnan nanL1404 540Lnan nanL1404 540C1433.82 540 1458 515.823 1458 486Lnan nanL1458 486Lnan nanZ" fill="#5AA6DD"/>
<path d="Mnan nanL1458 486C1428.18 486 1404 461.823 1404 432Lnan nanL1404 432Lnan nanL1404 432C1433.82 432 1458 456.177 1458 486Lnan nanL1458 486Lnan nanZ" fill="#5AA6DD"/>
<path d="Mnan nanL1458 486C1487.82 486 1512 510.177 1512 540Lnan nanL1512 540Lnan nanL1512 540C1482.18 540 1458 515.823 1458 486Lnan nanL1458 486Lnan nanZ" fill="#5AA6DD" fill-opacity="0.6"/>
<path d="Mnan nanL1512 432C1482.18 432 1458 456.177 1458 486Lnan nanL1458 486Lnan nanL1458 486C1487.82 486 1512 461.823 1512 432Lnan nanL1512 432Lnan nanZ" fill="#5AA6DD" fill-opacity="0.6"/>
</g>
<g opacity="0.16">
<path d="M1566 486C1595.82 486 1620 461.823 1620 432L1512 432C1512 461.823 1536.18 486 1566 486Z" fill="#5AA6DD"/>
<path d="M1566 486C1536.18 486 1512 510.177 1512 540L1620 540C1620 510.177 1595.82 486 1566 486Z" fill="#5AA6DD" fill-opacity="0.6"/>
</g>
<g opacity="0.16">
<path d="M1687.5 540L1687.5 432L1728 432L1728 540L1687.5 540Z" fill="#5AA6DD" fill-opacity="0.6"/>
<path d="M1620 540L1620 432L1660.5 432L1660.5 540L1620 540Z" fill="#5AA6DD"/>
</g>
<g opacity="0.16">
<path d="M1836 432V540C1776.35 540 1728 491.647 1728 432H1836Z" fill="#5AA6DD" fill-opacity="0.6"/>
<path fill-rule="evenodd" clip-rule="evenodd" d="M1836 472.349V506.231C1835.44 506.244 1834.88 506.25 1834.31 506.25C1793.31 506.25 1760.06 473.007 1760.06 432H1795.65C1795.55 433.112 1795.5 434.237 1795.5 435.375C1795.5 455.879 1812.12 472.5 1832.62 472.5C1833.76 472.5 1834.89 472.449 1836 472.349Z" fill="#5AA6DD"/>
</g>
<g opacity="0.16">
<path d="M1890 486C1919.82 486 1944 510.177 1944 540L1836 540C1836 510.177 1860.18 486 1890 486Z" fill="#5AA6DD"/>
<path d="M1890 486C1860.18 486 1836 461.823 1836 432L1944 432C1944 461.823 1919.82 486 1890 486Z" fill="#5AA6DD" fill-opacity="0.6"/>
</g>
<g opacity="0.16">
<path d="Mnan nanL1944 486C1973.82 486 1998 510.177 1998 540Lnan nanL1998 540Lnan nanL1998 540C1968.18 540 1944 515.823 1944 486Lnan nanL1944 486Lnan nanZ" fill="#5AA6DD"/>
<path d="Mnan nanL1944 486C1973.82 486 1998 461.823 1998 432Lnan nanL1998 432Lnan nanL1998 432C1968.18 432 1944 456.177 1944 486Lnan nanL1944 486Lnan nanZ" fill="#5AA6DD"/>
<path d="Mnan nanL2052 486C2022.18 486 1998 510.177 1998 540Lnan nanL1998 540Lnan nanL1998 540C2027.82 540 2052 515.823 2052 486Lnan nanL2052 486Lnan nanZ" fill="#5AA6DD" fill-opacity="0.6"/>
<path d="Mnan nanL2052 486C2022.18 486 1998 461.823 1998 432Lnan nanL1998 432Lnan nanL1998 432C2027.82 432 2052 456.177 2052 486Lnan nanL2052 486Lnan nanZ" fill="#5AA6DD" fill-opacity="0.6"/>
</g>
<g opacity="0.16">
<path d="M2052 486C2052 515.823 2076.18 540 2106 540Lnan nanL2106 540C2135.82 540 2160 515.823 2160 486V432H2052V486Z" fill="#5AA6DD" fill-opacity="0.6"/>
<path d="M2139.75 486C2139.75 467.36 2124.64 452.25 2106 452.25C2087.36 452.25 2072.25 467.36 2072.25 486C2072.25 504.64 2087.36 519.75 2106 519.75C2124.64 519.75 2139.75 504.64 2139.75 486Z" fill="#5AA6DD"/>
</g>
<g opacity="0.16">
<path d="Mnan nanL1134 594C1163.82 594 1188 569.823 1188 540Lnan nanL1188 540Lnan nanL1188 540C1158.18 540 1134 564.177 1134 594Lnan nanL1134 594Lnan nanZ" fill="#5AA6DD"/>
<path d="Mnan nanL1134 594C1163.82 594 1188 618.177 1188 648Lnan nanL1188 648Lnan nanL1188 648C1158.18 648 1134 623.823 1134 594Lnan nanL1134 594Lnan nanZ" fill="#5AA6DD"/>
<path d="Mnan nanL1134 594C1104.18 594 1080 569.823 1080 540Lnan nanL1080 540Lnan nanL1080 540C1109.82 540 1134 564.177 1134 594Lnan nanL1134 594Lnan nanZ" fill="#5AA6DD" fill-opacity="0.6"/>
<path d="Mnan nanL1080 648C1109.82 648 1134 623.823 1134 594Lnan nanL1134 594Lnan nanL1134 594C1104.18 594 1080 618.177 1080 648Lnan nanL1080 648Lnan nanZ" fill="#5AA6DD" fill-opacity="0.6"/>
</g>
<g opacity="0.16">
<path d="M1255.5 648L1255.5 540L1296 540L1296 648L1255.5 648Z" fill="#5AA6DD" fill-opacity="0.6"/>
<path d="M1188 648L1188 540L1228.5 540L1228.5 648L1188 648Z" fill="#5AA6DD"/>
</g>
<g opacity="0.16">
<path d="M1404 594C1404 623.823 1379.82 648 1350 648C1320.18 648 1296 623.823 1296 594C1296 564.177 1320.18 540 1350 540C1379.82 540 1404 564.177 1404 594Z" fill="#5AA6DD"/>
<path d="M1383.75 594C1383.75 612.64 1368.64 627.75 1350 627.75C1331.36 627.75 1316.25 612.64 1316.25 594C1316.25 575.36 1331.36 560.25 1350 560.25C1368.64 560.25 1383.75 575.36 1383.75 594Z" fill="#5AA6DD" fill-opacity="0.6"/>
<path d="M1363.5 594C1363.5 601.456 1357.46 607.5 1350 607.5C1342.54 607.5 1336.5 601.456 1336.5 594C1336.5 586.544 1342.54 580.5 1350 580.5C1357.46 580.5 1363.5 586.544 1363.5 594Z" fill="#5AA6DD"/>
</g>
<g opacity="0.16">
<path d="M1512 594C1512 623.823 1487.82 648 1458 648H1404V594C1404 564.177 1428.18 540 1458 540C1487.82 540 1512 564.177 1512 594Z" fill="#5AA6DD" fill-opacity="0.6"/>
</g>
<g opacity="0.16">
<path d="Mnan nanL1620 594C1590.18 594 1566 569.823 1566 540Lnan nanL1566 540Lnan nanL1566 540C1595.82 540 1620 564.177 1620 594Lnan nanL1620 594Lnan nanZ" fill="#5AA6DD"/>
<path d="Mnan nanL1620 594C1590.18 594 1566 618.177 1566 648Lnan nanL1566 648Lnan nanL1566 648C1595.82 648 1620 623.823 1620 594Lnan nanL1620 594Lnan nanZ" fill="#5AA6DD"/>
<path d="Mnan nanL1512 594C1541.82 594 1566 569.823 1566 540Lnan nanL1566 540Lnan nanL1566 540C1536.18 540 1512 564.177 1512 594Lnan nanL1512 594Lnan nanZ" fill="#5AA6DD" fill-opacity="0.6"/>
<path d="Mnan nanL1512 594C1541.82 594 1566 618.177 1566 648Lnan nanL1566 648Lnan nanL1566 648C1536.18 648 1512 623.823 1512 594Lnan nanL1512 594Lnan nanZ" fill="#5AA6DD" fill-opacity="0.6"/>
</g>
<g opacity="0.16">
<path d="M1674 594C1703.82 594 1728 618.177 1728 648L1620 648C1620 618.177 1644.18 594 1674 594Z" fill="#5AA6DD"/>
<path d="M1674 594C1644.18 594 1620 569.823 1620 540L1728 540C1728 569.823 1703.82 594 1674 594Z" fill="#5AA6DD" fill-opacity="0.6"/>
</g>
<g opacity="0.16">
<path d="M1728 594C1728 564.177 1752.18 540 1782 540H1836V594C1836 623.823 1811.82 648 1782 648C1752.18 648 1728 623.823 1728 594Z" fill="#5AA6DD"/>
</g>
<g opacity="0.16">
<path d="M1903.5 648L1903.5 540L1944 540L1944 648L1903.5 648Z" fill="#5AA6DD" fill-opacity="0.6"/>
<path d="M1836 648L1836 540L1876.5 540L1876.5 648L1836 648Z" fill="#5AA6DD"/>
</g>
<g opacity="0.16">
<path d="Mnan nanL1998 594C1968.18 594 1944 618.177 1944 648Lnan nanL1944 648Lnan nanL1944 648C1973.82 648 1998 623.823 1998 594Lnan nanL1998 594Lnan nanZ" fill="#5AA6DD"/>
<path d="Mnan nanL1998 594C1968.18 594 1944 569.823 1944 540Lnan nanL1944 540Lnan nanL1944 540C1973.82 540 1998 564.177 1998 594Lnan nanL1998 594Lnan nanZ" fill="#5AA6DD"/>
<path d="Mnan nanL1998 594C2027.82 594 2052 618.177 2052 648Lnan nanL2052 648Lnan nanL2052 648C2022.18 648 1998 623.823 1998 594Lnan nanL1998 594Lnan nanZ" fill="#5AA6DD" fill-opacity="0.6"/>
<path d="Mnan nanL2052 540C2022.18 540 1998 564.177 1998 594Lnan nanL1998 594Lnan nanL1998 594C2027.82 594 2052 569.823 2052 540Lnan nanL2052 540Lnan nanZ" fill="#5AA6DD" fill-opacity="0.6"/>
</g>
<g opacity="0.16">
<path d="M2160 594C2160 564.177 2135.82 540 2106 540H2052V594C2052 623.823 2076.18 648 2106 648C2135.82 648 2160 623.823 2160 594Z" fill="#5AA6DD" fill-opacity="0.6"/>
</g>
</g>
</g>
<g opacity="0.8">
<g opacity="0.8">
<g opacity="0.16">
<path d="M108 810C108 780.177 83.8234 756 54 756C24.1766 756 0 780.177 0 810C0 839.823 24.1766 864 54 864C83.8234 864 108 839.823 108 810Z" fill="#5AA6DD" fill-opacity="0.6"/>
<path fill-rule="evenodd" clip-rule="evenodd" d="M54 776.25C72.6396 776.25 87.75 791.36 87.75 810C87.75 828.64 72.6396 843.75 54 843.75C35.3604 843.75 20.25 828.64 20.25 810C20.25 791.36 35.3604 776.25 54 776.25ZM54 796.5C61.4558 796.5 67.5 802.544 67.5 810C67.5 817.456 61.4558 823.5 54 823.5C46.5442 823.5 40.5 817.456 40.5 810C40.5 802.544 46.5442 796.5 54 796.5Z" fill="#5AA6DD"/>
</g>
<g opacity="0.16">
<path d="M108 756V864C167.647 864 216 815.647 216 756H108Z" fill="#5AA6DD" fill-opacity="0.6"/>
<path fill-rule="evenodd" clip-rule="evenodd" d="M108 796.349V830.231C108.561 830.244 109.124 830.25 109.688 830.25C150.695 830.25 183.938 797.007 183.938 756H148.349C148.449 757.112 148.5 758.237 148.5 759.375C148.5 779.879 131.879 796.5 111.375 796.5C110.237 796.5 109.112 796.449 108 796.349Z" fill="#5AA6DD"/>
</g>
<g opacity="0.16">
<path d="M216 810C216 780.177 240.177 756 270 756H324V810C324 839.823 299.823 864 270 864C240.177 864 216 839.823 216 810Z" fill="#5AA6DD"/>
</g>
<g opacity="0.16">
<path d="Mnan nanL378 810C348.177 810 324 785.823 324 756Lnan nanL324 756Lnan nanL324 756C353.823 756 378 780.177 378 810Lnan nanL378 810Lnan nanZ" fill="#5AA6DD"/>
<path d="Mnan nanL378 810C348.177 810 324 834.177 324 864Lnan nanL324 864Lnan nanL324 864C353.823 864 378 839.823 378 810Lnan nanL378 810Lnan nanZ" fill="#5AA6DD"/>
<path d="Mnan nanL378 810C407.823 810 432 785.823 432 756Lnan nanL432 756Lnan nanL432 756C402.177 756 378 780.177 378 810Lnan nanL378 810Lnan nanZ" fill="#5AA6DD" fill-opacity="0.6"/>
<path d="Mnan nanL432 864C402.177 864 378 839.823 378 810Lnan nanL378 810Lnan nanL378 810C407.823 810 432 834.177 432 864Lnan nanL432 864Lnan nanZ" fill="#5AA6DD" fill-opacity="0.6"/>
</g>
<g opacity="0.16">
<path d="M486 810C515.823 810 540 834.177 540 864L432 864C432 834.177 456.177 810 486 810Z" fill="#5AA6DD"/>
<path d="M486 810C456.177 810 432 785.823 432 756L540 756C540 785.823 515.823 810 486 810Z" fill="#5AA6DD" fill-opacity="0.6"/>
</g>
<g opacity="0.16">
<path d="M607.5 756L607.5 864L648 864L648 756L607.5 756Z" fill="#5AA6DD" fill-opacity="0.6"/>
<path d="M540 756L540 864L580.5 864L580.5 756L540 756Z" fill="#5AA6DD"/>
</g>
<g opacity="0.16">
<path d="M756 864V756C696.353 756 648 804.353 648 864H756Z" fill="#5AA6DD" fill-opacity="0.6"/>
<path fill-rule="evenodd" clip-rule="evenodd" d="M756 823.651V789.769C755.439 789.756 754.876 789.75 754.312 789.75C713.305 789.75 680.062 822.993 680.062 864H715.651C715.551 862.888 715.5 861.763 715.5 860.625C715.5 840.121 732.121 823.5 752.625 823.5C753.763 823.5 754.888 823.551 756 823.651Z" fill="#5AA6DD"/>
</g>
<g opacity="0.16">
<path d="M810 810C839.823 810 864 785.823 864 756L756 756C756 785.823 780.177 810 810 810Z" fill="#5AA6DD"/>
<path d="M810 810C780.177 810 756 834.177 756 864L864 864C864 834.177 839.823 810 810 810Z" fill="#5AA6DD" fill-opacity="0.6"/>
</g>
<g opacity="0.16">
<path d="Mnan nanL864 810C893.823 810 918 785.823 918 756Lnan nanL918 756Lnan nanL918 756C888.177 756 864 780.177 864 810Lnan nanL864 810Lnan nanZ" fill="#5AA6DD"/>
<path d="Mnan nanL864 810C893.823 810 918 834.177 918 864Lnan nanL918 864Lnan nanL918 864C888.177 864 864 839.823 864 810Lnan nanL864 810Lnan nanZ" fill="#5AA6DD"/>
<path d="Mnan nanL972 810C942.177 810 918 785.823 918 756Lnan nanL918 756Lnan nanL918 756C947.823 756 972 780.177 972 810Lnan nanL972 810Lnan nanZ" fill="#5AA6DD" fill-opacity="0.6"/>
<path d="Mnan nanL972 810C942.177 810 918 834.177 918 864Lnan nanL918 864Lnan nanL918 864C947.823 864 972 839.823 972 810Lnan nanL972 810Lnan nanZ" fill="#5AA6DD" fill-opacity="0.6"/>
</g>
<g opacity="0.16">
<path d="M972 810C972 780.177 996.177 756 1026 756Lnan nanL1026 756C1055.82 756 1080 780.177 1080 810V864H972V810Z" fill="#5AA6DD" fill-opacity="0.6"/>
<path d="M1059.75 810C1059.75 828.64 1044.64 843.75 1026 843.75C1007.36 843.75 992.25 828.64 992.25 810C992.25 791.36 1007.36 776.25 1026 776.25C1044.64 776.25 1059.75 791.36 1059.75 810Z" fill="#5AA6DD"/>
</g>
<g opacity="0.16">
<path d="Mnan nanL54 702C83.8234 702 108 726.177 108 756Lnan nanL108 756Lnan nanL108 756C78.1766 756 54 731.823 54 702Lnan nanL54 702Lnan nanZ" fill="#5AA6DD"/>
<path d="Mnan nanL54 702C83.8234 702 108 677.823 108 648Lnan nanL108 648Lnan nanL108 648C78.1766 648 54 672.177 54 702Lnan nanL54 702Lnan nanZ" fill="#5AA6DD"/>
<path d="Mnan nanL54 702C24.1766 702 -1.05679e-06 726.177 -2.36041e-06 756Lnan nanL-2.36041e-06 756Lnan nanL-2.36041e-06 756C29.8234 756 54 731.823 54 702Lnan nanL54 702Lnan nanZ" fill="#5AA6DD" fill-opacity="0.6"/>
<path d="Mnan nanL0 648C29.8234 648 54 672.177 54 702Lnan nanL54 702Lnan nanL54 702C24.1766 702 1.30362e-06 677.823 0 648Lnan nanL0 648Lnan nanZ" fill="#5AA6DD" fill-opacity="0.6"/>
</g>
<g opacity="0.16">
<path d="M175.5 648L175.5 756L216 756L216 648L175.5 648Z" fill="#5AA6DD" fill-opacity="0.6"/>
<path d="M108 648L108 756L148.5 756L148.5 648L108 648Z" fill="#5AA6DD"/>
</g>
<g opacity="0.16">
<path d="M324 702C324 672.177 299.823 648 270 648C240.177 648 216 672.177 216 702C216 731.823 240.177 756 270 756C299.823 756 324 731.823 324 702Z" fill="#5AA6DD"/>
<path d="M303.75 702C303.75 683.36 288.64 668.25 270 668.25C251.36 668.25 236.25 683.36 236.25 702C236.25 720.64 251.36 735.75 270 735.75C288.64 735.75 303.75 720.64 303.75 702Z" fill="#5AA6DD" fill-opacity="0.6"/>
<path d="M283.5 702C283.5 694.544 277.456 688.5 270 688.5C262.544 688.5 256.5 694.544 256.5 702C256.5 709.456 262.544 715.5 270 715.5C277.456 715.5 283.5 709.456 283.5 702Z" fill="#5AA6DD"/>
</g>
<g opacity="0.16">
<path d="M432 702C432 672.177 407.823 648 378 648H324V702C324 731.823 348.177 756 378 756C407.823 756 432 731.823 432 702Z" fill="#5AA6DD" fill-opacity="0.6"/>
</g>
<g opacity="0.16">
<path d="Mnan nanL540 702C510.177 702 486 726.177 486 756Lnan nanL486 756Lnan nanL486 756C515.823 756 540 731.823 540 702Lnan nanL540 702Lnan nanZ" fill="#5AA6DD"/>
<path d="Mnan nanL540 702C510.177 702 486 677.823 486 648Lnan nanL486 648Lnan nanL486 648C515.823 648 540 672.177 540 702Lnan nanL540 702Lnan nanZ" fill="#5AA6DD"/>
<path d="Mnan nanL432 702C461.823 702 486 726.177 486 756Lnan nanL486 756Lnan nanL486 756C456.177 756 432 731.823 432 702Lnan nanL432 702Lnan nanZ" fill="#5AA6DD" fill-opacity="0.6"/>
<path d="Mnan nanL432 702C461.823 702 486 677.823 486 648Lnan nanL486 648Lnan nanL486 648C456.177 648 432 672.177 432 702Lnan nanL432 702Lnan nanZ" fill="#5AA6DD" fill-opacity="0.6"/>
</g>
<g opacity="0.16">
<path d="M594 702C623.823 702 648 677.823 648 648L540 648C540 677.823 564.177 702 594 702Z" fill="#5AA6DD"/>
<path d="M594 702C564.177 702 540 726.177 540 756L648 756C648 726.177 623.823 702 594 702Z" fill="#5AA6DD" fill-opacity="0.6"/>
</g>
<g opacity="0.16">
<path d="M648 702C648 731.823 672.177 756 702 756H756V702C756 672.177 731.823 648 702 648C672.177 648 648 672.177 648 702Z" fill="#5AA6DD"/>
</g>
<g opacity="0.16">
<path d="M823.5 648L823.5 756L864 756L864 648L823.5 648Z" fill="#5AA6DD" fill-opacity="0.6"/>
<path d="M756 648L756 756L796.5 756L796.5 648L756 648Z" fill="#5AA6DD"/>
</g>
<g opacity="0.16">
<path d="Mnan nanL918 702C888.177 702 864 677.823 864 648Lnan nanL864 648Lnan nanL864 648C893.823 648 918 672.177 918 702Lnan nanL918 702Lnan nanZ" fill="#5AA6DD"/>
<path d="Mnan nanL918 702C888.177 702 864 726.177 864 756Lnan nanL864 756Lnan nanL864 756C893.823 756 918 731.823 918 702Lnan nanL918 702Lnan nanZ" fill="#5AA6DD"/>
<path d="Mnan nanL918 702C947.823 702 972 677.823 972 648Lnan nanL972 648Lnan nanL972 648C942.177 648 918 672.177 918 702Lnan nanL918 702Lnan nanZ" fill="#5AA6DD" fill-opacity="0.6"/>
<path d="Mnan nanL972 756C942.177 756 918 731.823 918 702Lnan nanL918 702Lnan nanL918 702C947.823 702 972 726.177 972 756Lnan nanL972 756Lnan nanZ" fill="#5AA6DD" fill-opacity="0.6"/>
</g>
<g opacity="0.16">
<path d="M1080 702C1080 731.823 1055.82 756 1026 756H972V702C972 672.177 996.177 648 1026 648C1055.82 648 1080 672.177 1080 702Z" fill="#5AA6DD" fill-opacity="0.6"/>
</g>
</g>
<g opacity="0.8">
<g opacity="0.16">
<path d="M1188 810C1188 780.177 1163.82 756 1134 756C1104.18 756 1080 780.177 1080 810C1080 839.823 1104.18 864 1134 864C1163.82 864 1188 839.823 1188 810Z" fill="#5AA6DD" fill-opacity="0.6"/>
<path fill-rule="evenodd" clip-rule="evenodd" d="M1134 776.25C1152.64 776.25 1167.75 791.36 1167.75 810C1167.75 828.64 1152.64 843.75 1134 843.75C1115.36 843.75 1100.25 828.64 1100.25 810C1100.25 791.36 1115.36 776.25 1134 776.25ZM1134 796.5C1141.46 796.5 1147.5 802.544 1147.5 810C1147.5 817.456 1141.46 823.5 1134 823.5C1126.54 823.5 1120.5 817.456 1120.5 810C1120.5 802.544 1126.54 796.5 1134 796.5Z" fill="#5AA6DD"/>
</g>
<g opacity="0.16">
<path d="M1188 756V864C1247.65 864 1296 815.647 1296 756H1188Z" fill="#5AA6DD" fill-opacity="0.6"/>
<path fill-rule="evenodd" clip-rule="evenodd" d="M1188 796.349V830.231C1188.56 830.244 1189.12 830.25 1189.69 830.25C1230.69 830.25 1263.94 797.007 1263.94 756H1228.35C1228.45 757.112 1228.5 758.237 1228.5 759.375C1228.5 779.879 1211.88 796.5 1191.38 796.5C1190.24 796.5 1189.11 796.449 1188 796.349Z" fill="#5AA6DD"/>
</g>
<g opacity="0.16">
<path d="M1296 810C1296 780.177 1320.18 756 1350 756H1404V810C1404 839.823 1379.82 864 1350 864C1320.18 864 1296 839.823 1296 810Z" fill="#5AA6DD"/>
</g>
<g opacity="0.16">
<path d="Mnan nanL1458 810C1428.18 810 1404 785.823 1404 756Lnan nanL1404 756Lnan nanL1404 756C1433.82 756 1458 780.177 1458 810Lnan nanL1458 810Lnan nanZ" fill="#5AA6DD"/>
<path d="Mnan nanL1458 810C1428.18 810 1404 834.177 1404 864Lnan nanL1404 864Lnan nanL1404 864C1433.82 864 1458 839.823 1458 810Lnan nanL1458 810Lnan nanZ" fill="#5AA6DD"/>
<path d="Mnan nanL1458 810C1487.82 810 1512 785.823 1512 756Lnan nanL1512 756Lnan nanL1512 756C1482.18 756 1458 780.177 1458 810Lnan nanL1458 810Lnan nanZ" fill="#5AA6DD" fill-opacity="0.6"/>
<path d="Mnan nanL1512 864C1482.18 864 1458 839.823 1458 810Lnan nanL1458 810Lnan nanL1458 810C1487.82 810 1512 834.177 1512 864Lnan nanL1512 864Lnan nanZ" fill="#5AA6DD" fill-opacity="0.6"/>
</g>
<g opacity="0.16">
<path d="M1566 810C1595.82 810 1620 834.177 1620 864L1512 864C1512 834.177 1536.18 810 1566 810Z" fill="#5AA6DD"/>
<path d="M1566 810C1536.18 810 1512 785.823 1512 756L1620 756C1620 785.823 1595.82 810 1566 810Z" fill="#5AA6DD" fill-opacity="0.6"/>
</g>
<g opacity="0.16">
<path d="M1687.5 756L1687.5 864L1728 864L1728 756L1687.5 756Z" fill="#5AA6DD" fill-opacity="0.6"/>
<path d="M1620 756L1620 864L1660.5 864L1660.5 756L1620 756Z" fill="#5AA6DD"/>
</g>
<g opacity="0.16">
<path d="M1836 864V756C1776.35 756 1728 804.353 1728 864H1836Z" fill="#5AA6DD" fill-opacity="0.6"/>
<path fill-rule="evenodd" clip-rule="evenodd" d="M1836 823.651V789.769C1835.44 789.756 1834.88 789.75 1834.31 789.75C1793.31 789.75 1760.06 822.993 1760.06 864H1795.65C1795.55 862.888 1795.5 861.763 1795.5 860.625C1795.5 840.121 1812.12 823.5 1832.62 823.5C1833.76 823.5 1834.89 823.551 1836 823.651Z" fill="#5AA6DD"/>
</g>
<g opacity="0.16">
<path d="M1890 810C1919.82 810 1944 785.823 1944 756L1836 756C1836 785.823 1860.18 810 1890 810Z" fill="#5AA6DD"/>
<path d="M1890 810C1860.18 810 1836 834.177 1836 864L1944 864C1944 834.177 1919.82 810 1890 810Z" fill="#5AA6DD" fill-opacity="0.6"/>
</g>
<g opacity="0.16">
<path d="Mnan nanL1944 810C1973.82 810 1998 785.823 1998 756Lnan nanL1998 756Lnan nanL1998 756C1968.18 756 1944 780.177 1944 810Lnan nanL1944 810Lnan nanZ" fill="#5AA6DD"/>
<path d="Mnan nanL1944 810C1973.82 810 1998 834.177 1998 864Lnan nanL1998 864Lnan nanL1998 864C1968.18 864 1944 839.823 1944 810Lnan nanL1944 810Lnan nanZ" fill="#5AA6DD"/>
<path d="Mnan nanL2052 810C2022.18 810 1998 785.823 1998 756Lnan nanL1998 756Lnan nanL1998 756C2027.82 756 2052 780.177 2052 810Lnan nanL2052 810Lnan nanZ" fill="#5AA6DD" fill-opacity="0.6"/>
<path d="Mnan nanL2052 810C2022.18 810 1998 834.177 1998 864Lnan nanL1998 864Lnan nanL1998 864C2027.82 864 2052 839.823 2052 810Lnan nanL2052 810Lnan nanZ" fill="#5AA6DD" fill-opacity="0.6"/>
</g>
<g opacity="0.16">
<path d="M2052 810C2052 780.177 2076.18 756 2106 756Lnan nanL2106 756C2135.82 756 2160 780.177 2160 810V864H2052V810Z" fill="#5AA6DD" fill-opacity="0.6"/>
<path d="M2139.75 810C2139.75 828.64 2124.64 843.75 2106 843.75C2087.36 843.75 2072.25 828.64 2072.25 810C2072.25 791.36 2087.36 776.25 2106 776.25C2124.64 776.25 2139.75 791.36 2139.75 810Z" fill="#5AA6DD"/>
</g>
<g opacity="0.16">
<path d="Mnan nanL1134 702C1163.82 702 1188 726.177 1188 756Lnan nanL1188 756Lnan nanL1188 756C1158.18 756 1134 731.823 1134 702Lnan nanL1134 702Lnan nanZ" fill="#5AA6DD"/>
<path d="Mnan nanL1134 702C1163.82 702 1188 677.823 1188 648Lnan nanL1188 648Lnan nanL1188 648C1158.18 648 1134 672.177 1134 702Lnan nanL1134 702Lnan nanZ" fill="#5AA6DD"/>
<path d="Mnan nanL1134 702C1104.18 702 1080 726.177 1080 756Lnan nanL1080 756Lnan nanL1080 756C1109.82 756 1134 731.823 1134 702Lnan nanL1134 702Lnan nanZ" fill="#5AA6DD" fill-opacity="0.6"/>
<path d="Mnan nanL1080 648C1109.82 648 1134 672.177 1134 702Lnan nanL1134 702Lnan nanL1134 702C1104.18 702 1080 677.823 1080 648Lnan nanL1080 648Lnan nanZ" fill="#5AA6DD" fill-opacity="0.6"/>
</g>
<g opacity="0.16">
<path d="M1255.5 648L1255.5 756L1296 756L1296 648L1255.5 648Z" fill="#5AA6DD" fill-opacity="0.6"/>
<path d="M1188 648L1188 756L1228.5 756L1228.5 648L1188 648Z" fill="#5AA6DD"/>
</g>
<g opacity="0.16">
<path d="M1404 702C1404 672.177 1379.82 648 1350 648C1320.18 648 1296 672.177 1296 702C1296 731.823 1320.18 756 1350 756C1379.82 756 1404 731.823 1404 702Z" fill="#5AA6DD"/>
<path d="M1383.75 702C1383.75 683.36 1368.64 668.25 1350 668.25C1331.36 668.25 1316.25 683.36 1316.25 702C1316.25 720.64 1331.36 735.75 1350 735.75C1368.64 735.75 1383.75 720.64 1383.75 702Z" fill="#5AA6DD" fill-opacity="0.6"/>
<path d="M1363.5 702C1363.5 694.544 1357.46 688.5 1350 688.5C1342.54 688.5 1336.5 694.544 1336.5 702C1336.5 709.456 1342.54 715.5 1350 715.5C1357.46 715.5 1363.5 709.456 1363.5 702Z" fill="#5AA6DD"/>
</g>
<g opacity="0.16">
<path d="M1512 702C1512 672.177 1487.82 648 1458 648H1404V702C1404 731.823 1428.18 756 1458 756C1487.82 756 1512 731.823 1512 702Z" fill="#5AA6DD" fill-opacity="0.6"/>
</g>
<g opacity="0.16">
<path d="Mnan nanL1620 702C1590.18 702 1566 726.177 1566 756Lnan nanL1566 756Lnan nanL1566 756C1595.82 756 1620 731.823 1620 702Lnan nanL1620 702Lnan nanZ" fill="#5AA6DD"/>
<path d="Mnan nanL1620 702C1590.18 702 1566 677.823 1566 648Lnan nanL1566 648Lnan nanL1566 648C1595.82 648 1620 672.177 1620 702Lnan nanL1620 702Lnan nanZ" fill="#5AA6DD"/>
<path d="Mnan nanL1512 702C1541.82 702 1566 726.177 1566 756Lnan nanL1566 756Lnan nanL1566 756C1536.18 756 1512 731.823 1512 702Lnan nanL1512 702Lnan nanZ" fill="#5AA6DD" fill-opacity="0.6"/>
<path d="Mnan nanL1512 702C1541.82 702 1566 677.823 1566 648Lnan nanL1566 648Lnan nanL1566 648C1536.18 648 1512 672.177 1512 702Lnan nanL1512 702Lnan nanZ" fill="#5AA6DD" fill-opacity="0.6"/>
</g>
<g opacity="0.16">
<path d="M1674 702C1703.82 702 1728 677.823 1728 648L1620 648C1620 677.823 1644.18 702 1674 702Z" fill="#5AA6DD"/>
<path d="M1674 702C1644.18 702 1620 726.177 1620 756L1728 756C1728 726.177 1703.82 702 1674 702Z" fill="#5AA6DD" fill-opacity="0.6"/>
</g>
<g opacity="0.16">
<path d="M1728 702C1728 731.823 1752.18 756 1782 756H1836V702C1836 672.177 1811.82 648 1782 648C1752.18 648 1728 672.177 1728 702Z" fill="#5AA6DD"/>
</g>
<g opacity="0.16">
<path d="M1903.5 648L1903.5 756L1944 756L1944 648L1903.5 648Z" fill="#5AA6DD" fill-opacity="0.6"/>
<path d="M1836 648L1836 756L1876.5 756L1876.5 648L1836 648Z" fill="#5AA6DD"/>
</g>
<g opacity="0.16">
<path d="Mnan nanL1998 702C1968.18 702 1944 677.823 1944 648Lnan nanL1944 648Lnan nanL1944 648C1973.82 648 1998 672.177 1998 702Lnan nanL1998 702Lnan nanZ" fill="#5AA6DD"/>
<path d="Mnan nanL1998 702C1968.18 702 1944 726.177 1944 756Lnan nanL1944 756Lnan nanL1944 756C1973.82 756 1998 731.823 1998 702Lnan nanL1998 702Lnan nanZ" fill="#5AA6DD"/>
<path d="Mnan nanL1998 702C2027.82 702 2052 677.823 2052 648Lnan nanL2052 648Lnan nanL2052 648C2022.18 648 1998 672.177 1998 702Lnan nanL1998 702Lnan nanZ" fill="#5AA6DD" fill-opacity="0.6"/>
<path d="Mnan nanL2052 756C2022.18 756 1998 731.823 1998 702Lnan nanL1998 702Lnan nanL1998 702C2027.82 702 2052 726.177 2052 756Lnan nanL2052 756Lnan nanZ" fill="#5AA6DD" fill-opacity="0.6"/>
</g>
<g opacity="0.16">
<path d="M2160 702C2160 731.823 2135.82 756 2106 756H2052V702C2052 672.177 2076.18 648 2106 648C2135.82 648 2160 672.177 2160 702Z" fill="#5AA6DD" fill-opacity="0.6"/>
</g>
</g>
</g>
</svg>
